<svg xmlns="http://www.w3.org/2000/svg" viewBox="0 0 32 32" width="32" height="32">
  <!-- blue rounded square background -->
  <rect width="32" height="32" rx="7" fill="#2563eb"/>
  <!-- people icon (scaled from 24x24 to fit in 20x20, offset 6,6) -->
  <g transform="translate(6,6) scale(0.833)" stroke="white" stroke-width="2.5" stroke-linecap="round" stroke-linejoin="round" fill="none">
    <path d="M17 20h5v-2a3 3 0 00-5.356-1.857M17 20H7m10 0v-2c0-.656-.126-1.283-.356-1.857M7 20H2v-2a3 3 0 015.356-1.857M7 20v-2c0-.656.126-1.283.356-1.857m0 0a5.002 5.002 0 019.288 0M15 7a3 3 0 11-6 0 3 3 0 016 0z"/>
  </g>
</svg>
